<?xml version="1.0" standalone="no"?>
<!DOCTYPE svg PUBLIC "-//W3C//DTD SVG 20010904//EN"
 "http://www.w3.org/TR/2001/REC-SVG-20010904/DTD/svg10.dtd">
<svg version="1.0" xmlns="http://www.w3.org/2000/svg"
 width="257.000000pt" height="257.000000pt" viewBox="0 0 257.000000 257.000000"
 preserveAspectRatio="xMidYMid meet">
<metadata>
Created by potrace 1.14, written by Peter Selinger 2001-2017
</metadata>
<g transform="translate(0.000000,257.000000) scale(0.100000,-0.100000)"
fill="#000000" stroke="none">
<path d="M506 2448 c-111 -14 -215 -80 -259 -162 -34 -65 -31 -173 7 -250 55
-110 177 -220 356 -322 47 -26 87 -49 89 -51 2 -1 -2 -9 -9 -18 -7 -8 -9 -15
-5 -15 4 0 1 -7 -6 -17 -15 -17 -19 -185 -7 -253 28 -155 32 -170 49 -230 6
-25 13 -52 14 -60 1 -8 6 -23 10 -32 5 -12 3 -18 -6 -19 -20 -1 -141 -18 -179
-25 -8 -1 -35 -6 -60 -9 -64 -9 -160 -34 -196 -50 -72 -33 -55 -113 31 -145
17 -6 66 -20 110 -30 86 -21 94 -22 230 -45 176 -30 195 -35 195 -53 0 -9 11
-41 25 -70 13 -29 25 -56 26 -60 1 -10 32 -64 46 -82 6 -8 12 -19 13 -25 4
-20 27 -45 54 -59 59 -30 114 32 162 185 l29 91 65 -6 c116 -11 160 -18 155
-26 -3 -5 2 -16 11 -24 8 -9 12 -16 8 -16 -3 0 -2 -6 4 -12 5 -7 26 -44 47
-83 44 -82 77 -115 116 -115 21 0 33 10 58 48 17 27 31 56 31 65 0 9 4 18 9
22 5 3 17 28 26 56 l17 51 132 -6 c143 -7 150 -10 162 -71 11 -62 -39 -138
-147 -220 -33 -25 -61 -45 -63 -45 -2 0 -33 -17 -68 -39 -35 -21 -85 -48 -111
-60 -26 -12 -47 -24 -47 -26 0 -8 50 14 166 71 199 100 302 197 312 294 2 26
-1 57 -7 69 -9 16 -9 21 1 21 96 4 160 17 221 44 62 27 97 66 97 108 0 84
-123 231 -350 416 -130 106 -136 111 -127 95 4 -6 3 -14 -3 -18 -6 -4 -8 -11
-5 -16 3 -5 2 -25 -4 -45 -11 -40 -19 -31 99 -119 166 -124 260 -225 260 -280
0 -49 -68 -74 -207 -78 -85 -2 -91 -1 -163 37 -82 43 -94 54 -78 73 8 10 7 13
-3 13 -9 0 -10 3 -4 8 18 12 78 251 78 313 0 33 3 59 7 59 3 0 6 10 6 23 0 19
14 126 20 150 1 4 2 12 3 18 0 6 16 2 37 -10 49 -29 51 -27 10 21 -20 23 -36
47 -36 54 0 6 25 22 55 35 30 13 55 27 55 32 0 4 -25 7 -55 7 -30 0 -55 3 -55
8 -1 4 -3 23 -6 42 -3 21 3 58 16 94 27 78 25 81 -10 19 -17 -29 -33 -53 -36
-53 -3 0 -2 5 1 10 3 6 -1 10 -10 10 -9 0 -15 7 -13 16 2 10 -3 19 -11 22 -9
3 -11 0 -6 -8 5 -9 4 -11 -4 -6 -6 4 -9 11 -6 15 7 12 -46 55 -90 73 -79 31
-162 17 -227 -38 -36 -30 -54 -28 -126 15 -73 43 -125 56 -149 38 -7 -5 -13
-7 -13 -4 0 4 -30 -7 -67 -24 -95 -43 -117 -44 -165 -8 -28 20 -53 29 -79 29
-38 0 -129 -26 -139 -39 -17 -24 -48 -16 -162 42 -189 96 -307 193 -359 296
-33 66 -32 153 3 204 31 45 86 87 148 111 50 20 205 28 285 16 46 -7 82 -12
200 -26 22 -3 51 -7 65 -10 14 -2 52 -7 85 -10 33 -3 76 -7 95 -10 42 -4 248
-5 272 -1 47 8 14 12 -110 13 -142 1 -215 7 -292 25 -25 5 -61 11 -80 14 -19
2 -60 8 -90 14 -30 6 -71 13 -90 15 -19 2 -57 7 -85 11 -85 10 -138 11 -199 3z
m282 -1539 c0 -18 6 -37 11 -42 6 -6 11 -19 11 -30 0 -10 5 -15 10 -12 6 3 10
-1 10 -11 0 -17 -30 -17 -125 1 -79 15 -192 37 -205 40 -8 2 -22 4 -30 5 -24
2 20 17 70 23 182 23 233 32 237 44 8 20 10 16 11 -18z m1029 -195 c-3 -3 -12
-4 -19 -1 -8 3 -5 6 6 6 11 1 17 -2 13 -5z"/>
<path d="M1595 2380 c-16 -7 -17 -9 -3 -9 9 -1 20 4 23 9 7 11 7 11 -20 0z"/>
<path d="M1498 2363 c6 -2 18 -2 25 0 6 3 1 5 -13 5 -14 0 -19 -2 -12 -5z"/>
</g>
</svg>
